<?xml version="1.0" encoding="utf-8"?>
<svg xmlns="http://www.w3.org/2000/svg" viewBox="0 0 16 16" width="16" height="16">
  <g transform="matrix(1.010255, 0, 0, 1.010255, -0.156224, 0.1005)" style="transform-origin: 8.15622px 7.8995px;">
    <path d="M 2.39 7.215 L 2.32 6.246 L 4.022 7.109 L 2.39 7.215 Z M 2.927 8.629 L 2.589 7.908 L 3.777 8.397 L 2.927 8.629 Z M 14.109 7.609 L 14.351 6.879 L 13.013 7.437 L 14.109 7.609 Z M 13.623 9.091 L 13.743 8.496 L 12.771 8.788 L 13.623 9.091 Z M 1.834 10.974 L 5.017 10.974 L 5.017 11.369 L 1.834 11.369 L 1.834 10.974 Z M 1.834 10.027 L 5.017 10.027 L 5.017 10.422 L 1.834 10.422 L 1.834 10.027 Z M 11.555 10.974 L 14.738 10.974 L 14.738 11.369 L 11.555 11.369 L 11.555 10.974 Z M 11.555 10.027 L 14.738 10.027 L 14.738 10.422 L 11.555 10.422 L 11.555 10.027 Z" style="fill: rgb(204, 204, 204);"/>
    <path d="M 14.684 4 L 14.676 3.992 C 14.678 3.377 14.487 0.784 14.138 0.07 C 13.191 0.431 11.466 1.608 11.081 2.806 C 9.217 2.524 7.112 2.559 5.258 2.878 C 4.951 1.584 3.407 0.605 2.239 0.048 C 1.746 0.883 1.527 2.818 1.583 4.197 C 1.581 4.202 1.58 4.203 1.578 4.206 C 1.791 9.979 4.609 13.562 8.292 15.751 C 12.081 13.562 14.782 9.32 14.679 4 C 14.681 4.003 14.683 4.003 14.684 4 Z M 8.343 15.004 C 2.557 12.088 1.462 4.751 2.447 0.841 C 2.72 2.355 3.22 3.296 4.3 3.759 C 5.303 3.469 6.468 3.294 7.658 3.239 L 8.517 5.23 L 9.153 3.234 C 10.253 3.281 11.325 3.429 12.265 3.688 C 13.257 2.963 13.649 1.849 13.854 0.882 C 14.117 2.01 14.087 4.452 14.089 4.452 L 14.095 4.412 C 14.192 9.217 11.76 13.044 8.344 15.004 L 8.343 15.004 Z" style="fill: rgb(204, 204, 204);"/>
  </g>
</svg>